<svg id="Cotab" xmlns="http://www.w3.org/2000/svg" viewBox="0 0 841.89 595.28"><g id="LogoCotab_BlancHorizontal"><text transform="translate(323.81 430.25)" font-size="77" fill="#22427c" font-family="Manrope-ExtraBold, Manrope" font-weight="800">C<tspan x="57.44" y="0" letter-spacing="-0.02em">OT</tspan><tspan x="159.69" y="0">AB</tspan><tspan x="261.33" y="0" letter-spacing="0.35em"> </tspan><tspan x="303.37" y="0">SAR</tspan><tspan x="459.21" y="0" letter-spacing="-0.05em">L</tspan></text><path d="M355.42,458.7a4.05,4.05,0,0,1,0,4.71,2.7,2.7,0,0,1-2.24.91,2.74,2.74,0,0,1-2.21-.88,3.54,3.54,0,0,1-.75-2.37,4.23,4.23,0,0,1,.31-1.7,2.54,2.54,0,0,1,1-1.15,3.17,3.17,0,0,1,1.68-.41A2.76,2.76,0,0,1,355.42,458.7Zm172.78,1.07a3,3,0,0,0-.52-1.4,2.41,2.41,0,0,0-2-.74,3,3,0,0,0-2.35.87,2.89,2.89,0,0,0-.6,1.27Zm176.85-1.66a2.73,2.73,0,0,0-1.58-.42,3,3,0,0,0-1.72.46,2.64,2.64,0,0,0-1,1.22,4.26,4.26,0,0,0-.33,1.7,4.63,4.63,0,0,0,.31,1.7,2.71,2.71,0,0,0,1,1.22,2.82,2.82,0,0,0,1.65.45A2.93,2.93,0,0,0,705,464a2.28,2.28,0,0,0,.9-1.18,5.77,5.77,0,0,0,0-3.55A2.39,2.39,0,0,0,705.05,458.11Zm22.79-.69a1.43,1.43,0,0,0,.65-.51,1.53,1.53,0,0,0,.24-.89,1.52,1.52,0,0,0-.47-1.14,1.86,1.86,0,0,0-1.36-.47h-3.4v3.18h3.4A2.54,2.54,0,0,0,727.84,457.42Zm-124.73.39a3.11,3.11,0,0,0-1.67.41,2.48,2.48,0,0,0-1,1.15,4.23,4.23,0,0,0-.32,1.7,3.54,3.54,0,0,0,.75,2.37,3.23,3.23,0,0,0,4.46,0,3.62,3.62,0,0,0,.74-2.34,3.54,3.54,0,0,0-.75-2.37A2.78,2.78,0,0,0,603.11,457.81Zm-21.2,0a3.11,3.11,0,0,0-1.67.41,2.48,2.48,0,0,0-1,1.15,4.23,4.23,0,0,0-.32,1.7,3.54,3.54,0,0,0,.75,2.37,3.23,3.23,0,0,0,4.46,0,3.62,3.62,0,0,0,.74-2.34,3.54,3.54,0,0,0-.75-2.37A2.78,2.78,0,0,0,581.91,457.81Zm146.63,2.63a2.72,2.72,0,0,0-1.21-.24H723.5V464h3.83a2.57,2.57,0,0,0,1.13-.24,1.82,1.82,0,0,0,.77-.68,1.86,1.86,0,0,0,.28-1,1.79,1.79,0,0,0-.24-.93A1.63,1.63,0,0,0,728.54,460.44Zm-108.22.63a5.08,5.08,0,0,0-.28-1.78,2.4,2.4,0,0,0-.88-1.18,2.71,2.71,0,0,0-1.58-.42,2.92,2.92,0,0,0-1.71.46,2.73,2.73,0,0,0-1,1.22,4.44,4.44,0,0,0-.32,1.7,4.63,4.63,0,0,0,.31,1.7,2.71,2.71,0,0,0,1,1.22,2.78,2.78,0,0,0,1.65.45,3,3,0,0,0,1.67-.42,2.28,2.28,0,0,0,.9-1.18A5.06,5.06,0,0,0,620.32,461.07Zm51.43-.15h4.44l-2.24-6.5Zm-30.47-1.15a3,3,0,0,0-.53-1.4,2.4,2.4,0,0,0-2-.74,2.93,2.93,0,0,0-2.34.87,3,3,0,0,0-.61,1.27Zm150.24,0a3,3,0,0,0-.52-1.4,2.42,2.42,0,0,0-2-.74,2.94,2.94,0,0,0-2.35.87,3,3,0,0,0-.61,1.27Zm32-16.92v34.23H326.13V442.85ZM332.84,459.21a6.42,6.42,0,0,1,.53-2.69,3.94,3.94,0,0,1,1.58-1.77,5,5,0,0,1,2.62-.62,4.83,4.83,0,0,1,2.81.74,4,4,0,0,1,1.55,2.1l3.15-.79a6.77,6.77,0,0,0-2.73-3.42,8.49,8.49,0,0,0-4.78-1.27,8.87,8.87,0,0,0-4.28,1,6.76,6.76,0,0,0-2.77,2.71,8.92,8.92,0,0,0,0,8.09,6.82,6.82,0,0,0,2.77,2.71,9,9,0,0,0,4.28,1,8.57,8.57,0,0,0,4.78-1.27,6.8,6.8,0,0,0,2.73-3.43l-3.15-.78a4,4,0,0,1-1.55,2.09,4.83,4.83,0,0,1-2.81.75,5,5,0,0,1-2.62-.63,3.94,3.94,0,0,1-1.58-1.77A6.39,6.39,0,0,1,332.84,459.21Zm26.64,1.86a5.8,5.8,0,0,0-.79-3.05,5.52,5.52,0,0,0-2.21-2.07,6.94,6.94,0,0,0-3.29-.75,6.8,6.8,0,0,0-3.25.74,5.58,5.58,0,0,0-2.22,2.06,5.85,5.85,0,0,0-.8,3.07,5.79,5.79,0,0,0,.79,3,5.43,5.43,0,0,0,2.2,2.07,6.76,6.76,0,0,0,3.28.76,6.93,6.93,0,0,0,3.28-.75,5.59,5.59,0,0,0,2.21-2.07A5.72,5.72,0,0,0,359.48,461.07Zm14.15-.68c0-.19,0-.48,0-.89a6.23,6.23,0,0,0-.27-1.34,4.37,4.37,0,0,0-.73-1.42,3.73,3.73,0,0,0-1.43-1.12,5.39,5.39,0,0,0-2.37-.44,5.81,5.81,0,0,0-3,.71,4.51,4.51,0,0,0-1,.77V455.5H362v11.13h3.17V461a4.46,4.46,0,0,1,.25-1.66,2.45,2.45,0,0,1,.67-1,2.12,2.12,0,0,1,.86-.43,3.36,3.36,0,0,1,.86-.12,2.61,2.61,0,0,1,1.54.4,2.25,2.25,0,0,1,.79,1,4.06,4.06,0,0,1,.29,1.19c0,.4,0,.72,0,1v5.25h3.17Zm13,2.88a2.7,2.7,0,0,0-.39-1.48,3.05,3.05,0,0,0-1.24-1.05,10.27,10.27,0,0,0-2.27-.77c-1-.22-1.68-.39-2.15-.53a2.8,2.8,0,0,1-.93-.4.62.62,0,0,1-.23-.49.81.81,0,0,1,.53-.74,2.69,2.69,0,0,1,1.38-.2,2.73,2.73,0,0,1,1.4.42,1.35,1.35,0,0,1,.6,1l3.19-.52a3.26,3.26,0,0,0-.86-1.75,4.57,4.57,0,0,0-1.82-1.14,7.6,7.6,0,0,0-2.58-.4,7.36,7.36,0,0,0-2.61.42,3.9,3.9,0,0,0-1.72,1.22,2.91,2.91,0,0,0-.61,1.86,2.6,2.6,0,0,0,.4,1.45,3.15,3.15,0,0,0,1.31,1,12,12,0,0,0,2.43.78c.89.21,1.55.39,2,.52a2.05,2.05,0,0,1,.82.39.77.77,0,0,1,.18.53.91.91,0,0,1-.46.82,2.37,2.37,0,0,1-1.31.3,3,3,0,0,1-1.7-.45,2,2,0,0,1-.87-1.22l-3.19.43a3.91,3.91,0,0,0,1.75,2.69,6.7,6.7,0,0,0,3.78,1,6.52,6.52,0,0,0,3.82-1A3.11,3.11,0,0,0,386.65,463.27Zm10-7.77H393v-3.08h-3.12v3.08H387.8v2.17h2.12v4.24c0,.67,0,1.26,0,1.79a3.18,3.18,0,0,0,.48,1.55,2.92,2.92,0,0,0,1.48,1.18,6.79,6.79,0,0,0,2.2.39,14.4,14.4,0,0,0,2.52-.19V464.3a10.78,10.78,0,0,1-2,.08,1.6,1.6,0,0,1-1.32-.64,1.51,1.51,0,0,1-.23-.83c0-.34,0-.73,0-1.16v-4.08h3.58Zm10,0a7,7,0,0,0-1.12,0,5.73,5.73,0,0,0-1.1.17,4.91,4.91,0,0,0-1,.39,3.49,3.49,0,0,0-1,.78,3.21,3.21,0,0,0-.34.48v-1.8h-2.76v11.13h3.15v-5.69a3.23,3.23,0,0,1,.19-1.15,2.37,2.37,0,0,1,.58-.88,2.76,2.76,0,0,1,.93-.6,3.64,3.64,0,0,1,1.23-.29,3.47,3.47,0,0,1,1.2.1Zm13.58,0h-3.15v5.65a4.51,4.51,0,0,1-.26,1.66,2.34,2.34,0,0,1-.66,1,2.27,2.27,0,0,1-.86.44,3.9,3.9,0,0,1-.86.11,2.58,2.58,0,0,1-1.55-.4,2.3,2.3,0,0,1-.78-1,4,4,0,0,1-.29-1.19c0-.39-.05-.72-.05-1V455.5h-3.17v6.25c0,.18,0,.48.05.88a6.92,6.92,0,0,0,.26,1.35,4.52,4.52,0,0,0,.73,1.41,3.81,3.81,0,0,0,1.43,1.12,5.43,5.43,0,0,0,2.38.45,5.13,5.13,0,0,0,4-1.48v1.15h2.76Zm5.83,5.57a4.4,4.4,0,0,1,.3-1.67,2.49,2.49,0,0,1,.93-1.16,2.79,2.79,0,0,1,1.62-.43,2.55,2.55,0,0,1,1.54.49,2.5,2.5,0,0,1,1,1.34l3.12-.74a4.34,4.34,0,0,0-1.9-2.71,6.48,6.48,0,0,0-3.68-1,6.71,6.71,0,0,0-3.28.76,5.34,5.34,0,0,0-2.15,2.09,5.92,5.92,0,0,0-.77,3,6.05,6.05,0,0,0,.74,3,5.27,5.27,0,0,0,2.11,2.1,6.62,6.62,0,0,0,3.31.78,6.5,6.5,0,0,0,3.63-1,4.75,4.75,0,0,0,2-2.73l-3.19-.6a2.6,2.6,0,0,1-.82,1.24,3.07,3.07,0,0,1-3.74-.47A3.66,3.66,0,0,1,426.07,461.07Zm18.21-5.57H440.7v-3.08h-3.12v3.08h-2.12v2.17h2.12v4.24c0,.67,0,1.26,0,1.79a3.18,3.18,0,0,0,.48,1.55,2.92,2.92,0,0,0,1.48,1.18,6.74,6.74,0,0,0,2.2.39,14.4,14.4,0,0,0,2.52-.19V464.3a10.78,10.78,0,0,1-2,.08,1.6,1.6,0,0,1-1.32-.64,1.51,1.51,0,0,1-.23-.83c0-.34,0-.73,0-1.16v-4.08h3.58Zm6.11,0h-3.12v11.13h3.12Zm0-4h-3.12V454h3.12Zm15.32,9.58a5.8,5.8,0,0,0-.79-3.05,5.52,5.52,0,0,0-2.21-2.07,6.94,6.94,0,0,0-3.29-.75,6.8,6.8,0,0,0-3.25.74A5.58,5.58,0,0,0,454,458a5.85,5.85,0,0,0-.8,3.07,5.79,5.79,0,0,0,.79,3,5.47,5.47,0,0,0,2.19,2.07,6.83,6.83,0,0,0,3.29.76,6.93,6.93,0,0,0,3.28-.75,5.68,5.68,0,0,0,2.22-2.07A5.8,5.8,0,0,0,465.71,461.07Zm14.15-.68c0-.19,0-.48,0-.89a6.23,6.23,0,0,0-.27-1.34,4.37,4.37,0,0,0-.73-1.42,3.73,3.73,0,0,0-1.43-1.12,5.39,5.39,0,0,0-2.37-.44,5.81,5.81,0,0,0-3,.71,4.51,4.51,0,0,0-1,.77V455.5h-2.78v11.13h3.17V461a4.25,4.25,0,0,1,.26-1.66,2.34,2.34,0,0,1,.66-1,2.12,2.12,0,0,1,.86-.43,3.36,3.36,0,0,1,.86-.12,2.61,2.61,0,0,1,1.54.4,2.25,2.25,0,0,1,.79,1,4.06,4.06,0,0,1,.29,1.19c0,.4,0,.72,0,1v5.25h3.17Zm5.65-8.59h-3.12v2.8H484a1.9,1.9,0,0,1-.05.87,1.09,1.09,0,0,1-.48.58,1.64,1.64,0,0,1-.9.16l-.18,1.17a2.64,2.64,0,0,0,2.35-.54,3,3,0,0,0,.77-2.24Zm11.63,11.47a2.7,2.7,0,0,0-.39-1.48,3.16,3.16,0,0,0-1.25-1.05,10.27,10.27,0,0,0-2.27-.77c-1-.22-1.68-.39-2.15-.53a2.8,2.8,0,0,1-.93-.4.62.62,0,0,1-.23-.49.81.81,0,0,1,.53-.74,3.31,3.31,0,0,1,2.78.22,1.35,1.35,0,0,1,.6,1l3.19-.52a3.32,3.32,0,0,0-.85-1.75,4.64,4.64,0,0,0-1.82-1.14,7.7,7.7,0,0,0-2.59-.4,7.36,7.36,0,0,0-2.61.42,3.9,3.9,0,0,0-1.72,1.22,3,3,0,0,0-.61,1.86,2.6,2.6,0,0,0,.4,1.45,3.15,3.15,0,0,0,1.31,1A12,12,0,0,0,491,462c.89.21,1.55.39,2,.52a2.05,2.05,0,0,1,.82.39.77.77,0,0,1,.18.53.91.91,0,0,1-.46.82,2.37,2.37,0,0,1-1.31.3,3,3,0,0,1-1.7-.45,2,2,0,0,1-.87-1.22l-3.19.43a3.91,3.91,0,0,0,1.75,2.69,6.7,6.7,0,0,0,3.78,1,6.52,6.52,0,0,0,3.82-1A3.12,3.12,0,0,0,497.14,463.27Zm17.64-8.86H520V451.8H506.44v2.61h5.21v12.22h3.13Zm16.13,3.93a4.92,4.92,0,0,0-2-2.32,6.31,6.31,0,0,0-3.32-.82,7,7,0,0,0-3.25.74,5.61,5.61,0,0,0-2.22,2.1,6.12,6.12,0,0,0-.8,3.17,5.38,5.38,0,0,0,.82,3,5.69,5.69,0,0,0,2.28,2,7.3,7.3,0,0,0,3.36.74,6.7,6.7,0,0,0,3.3-.85,5.12,5.12,0,0,0,2.21-2.37l-3.13-.8a2.39,2.39,0,0,1-1,1,3.2,3.2,0,0,1-1.57.36,2.79,2.79,0,0,1-2.21-.85,3,3,0,0,1-.69-1.62h8.7A6.92,6.92,0,0,0,530.91,458.34Zm5.66,2.73a4.4,4.4,0,0,1,.3-1.67,2.49,2.49,0,0,1,.93-1.16,2.79,2.79,0,0,1,1.62-.43,2.58,2.58,0,0,1,1.55.49,2.6,2.6,0,0,1,1,1.34l3.12-.74a4.42,4.42,0,0,0-1.9-2.71,6.5,6.5,0,0,0-3.68-1,6.72,6.72,0,0,0-3.29.76,5.47,5.47,0,0,0-2.15,2.09,5.92,5.92,0,0,0-.76,3,6,6,0,0,0,.73,3,5.33,5.33,0,0,0,2.11,2.1,6.64,6.64,0,0,0,3.31.78,6.5,6.5,0,0,0,3.63-1,4.77,4.77,0,0,0,2-2.73l-3.19-.6a2.62,2.62,0,0,1-.83,1.24,3.07,3.07,0,0,1-3.74-.47A3.66,3.66,0,0,1,536.57,461.07Zm22.4-.68c0-.19,0-.48-.05-.89a6.83,6.83,0,0,0-.26-1.34,4.57,4.57,0,0,0-.73-1.42,3.81,3.81,0,0,0-1.43-1.12,5.44,5.44,0,0,0-2.38-.44,5.77,5.77,0,0,0-3,.71,4.83,4.83,0,0,0-1,.77V451.8h-2.78v14.83h3.17V461a4.44,4.44,0,0,1,.26-1.66,2.34,2.34,0,0,1,.66-1,2.25,2.25,0,0,1,.86-.43,3.48,3.48,0,0,1,.86-.12,2.65,2.65,0,0,1,1.55.4,2.4,2.4,0,0,1,.79,1,4,4,0,0,1,.28,1.19c0,.4,0,.72,0,1v5.25H559Zm14.61,0c0-.19,0-.48-.05-.89a6.83,6.83,0,0,0-.26-1.34,4.57,4.57,0,0,0-.73-1.42,3.81,3.81,0,0,0-1.43-1.12,5.47,5.47,0,0,0-2.38-.44,5.81,5.81,0,0,0-3,.71,5,5,0,0,0-1,.77V455.5h-2.78v11.13h3.17V461a4.44,4.44,0,0,1,.26-1.66,2.34,2.34,0,0,1,.66-1,2.18,2.18,0,0,1,.86-.43,3.42,3.42,0,0,1,.86-.12,2.65,2.65,0,0,1,1.55.4,2.3,2.3,0,0,1,.78,1,4.06,4.06,0,0,1,.29,1.19c0,.4,0,.72,0,1v5.25h3.17Zm14.63.68a5.81,5.81,0,0,0-.8-3.05A5.46,5.46,0,0,0,585.2,456a7.55,7.55,0,0,0-6.54,0,5.49,5.49,0,0,0-2.21,2.06,5.77,5.77,0,0,0-.81,3.07,5.88,5.88,0,0,0,.79,3,5.49,5.49,0,0,0,2.2,2.07,6.79,6.79,0,0,0,3.28.76,6.9,6.9,0,0,0,3.28-.75,5.55,5.55,0,0,0,2.22-2.07A5.81,5.81,0,0,0,588.21,461.07Zm5.88-9.58H591v15.14h3.13Zm15.32,9.58a5.9,5.9,0,0,0-.79-3.05A5.55,5.55,0,0,0,606.4,456a7.55,7.55,0,0,0-6.54,0,5.49,5.49,0,0,0-2.21,2.06,6.23,6.23,0,0,0,0,6.11,5.49,5.49,0,0,0,2.2,2.07,6.79,6.79,0,0,0,3.28.76,6.9,6.9,0,0,0,3.28-.75,5.55,5.55,0,0,0,2.22-2.07A5.81,5.81,0,0,0,609.41,461.07Zm13.64-5.57h-2.73v.63l-.22-.16a5.37,5.37,0,0,0-3-.77,6.09,6.09,0,0,0-3.1.76,5.39,5.39,0,0,0-2,2.08,6.26,6.26,0,0,0-.73,3,6.15,6.15,0,0,0,.72,3,5.34,5.34,0,0,0,2,2.1,5.62,5.62,0,0,0,3,.78,5.8,5.8,0,0,0,3-.71v1.12a1.41,1.41,0,0,1-.35,1,2.26,2.26,0,0,1-1,.63,4.06,4.06,0,0,1-1.32.21,2.74,2.74,0,0,1-1.21-.26,1.91,1.91,0,0,1-.86-.75l-2.89,1.26a4.86,4.86,0,0,0,1.22,1.26,6.36,6.36,0,0,0,1.71.85,6.65,6.65,0,0,0,2,.3,9.76,9.76,0,0,0,2.54-.32,5.42,5.42,0,0,0,2-1,3.33,3.33,0,0,0,1.11-1.68,4.57,4.57,0,0,0,.14-.72,6.57,6.57,0,0,0,0-.78Zm6.57,0H626.5v11.13h3.12Zm0-4H626.5V454h3.12ZM644,458.34a5,5,0,0,0-2-2.32,6.34,6.34,0,0,0-3.32-.82,6.92,6.92,0,0,0-3.25.74,5.55,5.55,0,0,0-2.22,2.1,6,6,0,0,0-.8,3.17,5.38,5.38,0,0,0,.82,3,5.6,5.6,0,0,0,2.27,2,7.36,7.36,0,0,0,3.36.74,6.7,6.7,0,0,0,3.3-.85,5,5,0,0,0,2.21-2.37l-3.12-.8a2.39,2.39,0,0,1-1,1,3.22,3.22,0,0,1-1.57.36,2.77,2.77,0,0,1-2.21-.85,3,3,0,0,1-.7-1.62h8.71A7,7,0,0,0,644,458.34Zm13.08,4.93a2.7,2.7,0,0,0-.39-1.48,3.09,3.09,0,0,0-1.25-1.05,10.27,10.27,0,0,0-2.27-.77c-1-.22-1.68-.39-2.15-.53a2.8,2.8,0,0,1-.93-.4.61.61,0,0,1-.22-.49.8.8,0,0,1,.52-.74,3.31,3.31,0,0,1,2.78.22,1.32,1.32,0,0,1,.6,1l3.19-.52a3.24,3.24,0,0,0-.85-1.75,4.64,4.64,0,0,0-1.82-1.14,7.62,7.62,0,0,0-2.59-.4,7.36,7.36,0,0,0-2.61.42,3.9,3.9,0,0,0-1.72,1.22,3,3,0,0,0-.6,1.86,2.52,2.52,0,0,0,.4,1.45,3,3,0,0,0,1.31,1,11.68,11.68,0,0,0,2.42.78c.89.21,1.55.39,2,.52a2.05,2.05,0,0,1,.82.39.77.77,0,0,1,.18.53.92.92,0,0,1-.45.82,2.42,2.42,0,0,1-1.31.3,3,3,0,0,1-1.71-.45,2,2,0,0,1-.87-1.22l-3.19.43a3.91,3.91,0,0,0,1.75,2.69,6.72,6.72,0,0,0,3.79,1,6.51,6.51,0,0,0,3.81-1A3.12,3.12,0,0,0,657.07,463.27Zm24.3,3.36-5-14.83h-4.67l-5,14.83h3.22l1-3.09h6.23l1.06,3.09Zm13.69-6.24c0-.19,0-.48,0-.89a6.83,6.83,0,0,0-.26-1.34,4.57,4.57,0,0,0-.73-1.42,3.81,3.81,0,0,0-1.43-1.12,5.41,5.41,0,0,0-2.38-.44,5.8,5.8,0,0,0-3,.71,4.83,4.83,0,0,0-1,.77V455.5h-2.78v11.13h3.17V461a4.44,4.44,0,0,1,.26-1.66,2.34,2.34,0,0,1,.66-1,2.25,2.25,0,0,1,.86-.43,3.49,3.49,0,0,1,.87-.12,2.61,2.61,0,0,1,1.54.4,2.32,2.32,0,0,1,.79,1,4,4,0,0,1,.28,1.19c0,.4,0,.72,0,1v5.25h3.17ZM709,451.8h-3.15v4.08a5.45,5.45,0,0,0-2.8-.68,6.06,6.06,0,0,0-3.1.76,5.32,5.32,0,0,0-2,2.08,6.15,6.15,0,0,0-.73,3,6.26,6.26,0,0,0,.71,3,5.34,5.34,0,0,0,2,2.1,6.33,6.33,0,0,0,6.09,0,2.14,2.14,0,0,0,.26-.19v.66H709Zm23.7,10.34a3.6,3.6,0,0,0-.77-2.24,3.35,3.35,0,0,0-1.56-1.08,3,3,0,0,0,.95-.79,3.37,3.37,0,0,0,.62-2.07,4.21,4.21,0,0,0-.5-1.94,4,4,0,0,0-1.6-1.59,5.69,5.69,0,0,0-2.86-.63h-6.61v14.83h7.32a6.17,6.17,0,0,0,2.81-.57,3.87,3.87,0,0,0,1.66-1.59A4.86,4.86,0,0,0,732.66,462.14Zm13.69-6.64H743.2v5.65a4.53,4.53,0,0,1-.25,1.66,2.54,2.54,0,0,1-.66,1,2.24,2.24,0,0,1-.87.44,3.83,3.83,0,0,1-.86.11,2.54,2.54,0,0,1-1.54-.4,2.25,2.25,0,0,1-.79-1,4,4,0,0,1-.29-1.19c0-.39,0-.72,0-1V455.5h-3.17v6.25c0,.18,0,.48,0,.88A7,7,0,0,0,735,464a4.32,4.32,0,0,0,.73,1.41,3.81,3.81,0,0,0,1.43,1.12,5.4,5.4,0,0,0,2.38.45,5.89,5.89,0,0,0,3-.71,5.21,5.21,0,0,0,1-.77v1.15h2.76Zm13.25,7.77a2.7,2.7,0,0,0-.39-1.48,3.05,3.05,0,0,0-1.24-1.05,10.27,10.27,0,0,0-2.27-.77c-1-.22-1.68-.39-2.15-.53a2.7,2.7,0,0,1-.93-.4.62.62,0,0,1-.23-.49.81.81,0,0,1,.52-.74,3.33,3.33,0,0,1,2.79.22,1.38,1.38,0,0,1,.6,1l3.19-.52a3.26,3.26,0,0,0-.86-1.75,4.57,4.57,0,0,0-1.82-1.14,7.6,7.6,0,0,0-2.58-.4,7.36,7.36,0,0,0-2.61.42,3.9,3.9,0,0,0-1.72,1.22,2.91,2.91,0,0,0-.61,1.86,2.52,2.52,0,0,0,.4,1.45,3.15,3.15,0,0,0,1.31,1,11.79,11.79,0,0,0,2.43.78c.89.21,1.55.39,2,.52a2.05,2.05,0,0,1,.82.39.77.77,0,0,1,.18.53.91.91,0,0,1-.46.82,2.37,2.37,0,0,1-1.31.3,3,3,0,0,1-1.7-.45,2,2,0,0,1-.87-1.22l-3.19.43a3.88,3.88,0,0,0,1.75,2.69,6.7,6.7,0,0,0,3.78,1,6.52,6.52,0,0,0,3.82-1A3.13,3.13,0,0,0,759.6,463.27Zm5.88-7.77h-3.12v11.13h3.12Zm0-4h-3.12V454h3.12Zm15.07,8.9c0-.19,0-.48,0-.89a6.91,6.91,0,0,0-.27-1.34,4.37,4.37,0,0,0-.73-1.42,3.81,3.81,0,0,0-1.43-1.12,5.39,5.39,0,0,0-2.37-.44,5.81,5.81,0,0,0-3,.71,4.51,4.51,0,0,0-1,.77V455.5h-2.78v11.13h3.17V461a4.46,4.46,0,0,1,.25-1.66,2.54,2.54,0,0,1,.66-1,2.22,2.22,0,0,1,.87-.43,3.36,3.36,0,0,1,.86-.12,2.61,2.61,0,0,1,1.54.4,2.25,2.25,0,0,1,.79,1,4.06,4.06,0,0,1,.29,1.19c0,.4,0,.72,0,1v5.25h3.17Zm13.68-2.05a5,5,0,0,0-2-2.32,6.31,6.31,0,0,0-3.32-.82,6.92,6.92,0,0,0-3.25.74,5.61,5.61,0,0,0-2.22,2.1,6.12,6.12,0,0,0-.8,3.17,5.38,5.38,0,0,0,.82,3,5.73,5.73,0,0,0,2.27,2,7.36,7.36,0,0,0,3.36.74,6.65,6.65,0,0,0,3.3-.85,5.09,5.09,0,0,0,2.22-2.37l-3.13-.8a2.39,2.39,0,0,1-1,1,3.2,3.2,0,0,1-1.57.36,2.79,2.79,0,0,1-2.21-.85,3,3,0,0,1-.7-1.62h8.71A6.92,6.92,0,0,0,794.23,458.34Zm13.08,4.93a2.7,2.7,0,0,0-.39-1.48,3.09,3.09,0,0,0-1.25-1.05,10.17,10.17,0,0,0-2.26-.77c-1-.22-1.69-.39-2.16-.53a2.8,2.8,0,0,1-.93-.4.61.61,0,0,1-.22-.49.8.8,0,0,1,.52-.74,2.73,2.73,0,0,1,1.38-.2,2.8,2.8,0,0,1,1.41.42,1.34,1.34,0,0,1,.59,1l3.2-.52a3.33,3.33,0,0,0-.86-1.75,4.57,4.57,0,0,0-1.82-1.14,7.6,7.6,0,0,0-2.58-.4,7.38,7.38,0,0,0-2.62.42,3.81,3.81,0,0,0-1.71,1.22,2.91,2.91,0,0,0-.61,1.86,2.52,2.52,0,0,0,.4,1.45,3.09,3.09,0,0,0,1.31,1,11.68,11.68,0,0,0,2.42.78c.9.21,1.56.39,2,.52a2,2,0,0,1,.82.39.73.73,0,0,1,.19.53.93.93,0,0,1-.46.82,2.42,2.42,0,0,1-1.31.3,3,3,0,0,1-1.71-.45,2,2,0,0,1-.86-1.22l-3.2.43a3.91,3.91,0,0,0,1.75,2.69,6.76,6.76,0,0,0,3.79,1,6.51,6.51,0,0,0,3.81-1A3.12,3.12,0,0,0,807.31,463.27Zm12.56,0a2.7,2.7,0,0,0-.39-1.48,3.05,3.05,0,0,0-1.24-1.05A10.27,10.27,0,0,0,816,460c-1-.22-1.68-.39-2.15-.53a2.7,2.7,0,0,1-.93-.4.62.62,0,0,1-.23-.49.81.81,0,0,1,.52-.74A3.33,3.33,0,0,1,816,458a1.38,1.38,0,0,1,.6,1l3.19-.52a3.26,3.26,0,0,0-.86-1.75,4.57,4.57,0,0,0-1.82-1.14,7.6,7.6,0,0,0-2.58-.4,7.33,7.33,0,0,0-2.61.42,3.9,3.9,0,0,0-1.72,1.22,2.91,2.91,0,0,0-.61,1.86,2.52,2.52,0,0,0,.4,1.45,3.15,3.15,0,0,0,1.31,1,11.79,11.79,0,0,0,2.43.78c.89.21,1.55.39,2,.52a2.05,2.05,0,0,1,.82.39.77.77,0,0,1,.18.53.91.91,0,0,1-.46.82,2.37,2.37,0,0,1-1.31.3,3,3,0,0,1-1.7-.45,2,2,0,0,1-.87-1.22l-3.19.43A3.88,3.88,0,0,0,810.9,466a6.7,6.7,0,0,0,3.78,1,6.52,6.52,0,0,0,3.82-1A3.13,3.13,0,0,0,819.87,463.27Zm-360.45-5.46a3.17,3.17,0,0,0-1.68.41,2.54,2.54,0,0,0-1,1.15,4.23,4.23,0,0,0-.31,1.7,3.54,3.54,0,0,0,.75,2.37,3.23,3.23,0,0,0,4.46,0,3.62,3.62,0,0,0,.74-2.34,3.55,3.55,0,0,0-.76-2.37A2.76,2.76,0,0,0,459.42,457.81Z" fill="#22427c"/><path d="M153.89,437.93l0,24.77,0,20.2a154.08,154.08,0,0,1-25-5.32A151.31,151.31,0,0,1,107,469.2c-4.19-2-8.27-4.15-12.21-6.5A155.72,155.72,0,0,1,38.25,405a152.38,152.38,0,0,1-10.07-21.62A155.35,155.35,0,0,1,42.33,246.11q4-6.36,8.62-12.24a154.86,154.86,0,0,1,32.33-31.06,144.92,144.92,0,0,1,12.64-8.16,152.21,152.21,0,0,1,32.92-14.23v8.16l-.35.11A127.22,127.22,0,0,0,61.11,239a.49.49,0,0,0-.11.18c-.4.51-.78,1-1.16,1.57l.07,0a126.25,126.25,0,0,0-7.4,13.13A123.48,123.48,0,0,0,40,308.23c0,.31,0,.62,0,.93v0c0,.51,0,1,0,1.53v.2c0,1,0,2.06,0,3.1a127.89,127.89,0,0,0,10.66,48.2,126.41,126.41,0,0,0,11,20.09A127.71,127.71,0,0,0,89.51,412.1s.07.07.09,0q2.66,2.1,5.41,4a126,126,0,0,0,33.72,16.61l.11,0A124.56,124.56,0,0,0,153.89,437.93Z" fill="#22427c" stroke="#22427c" stroke-miterlimit="10"/><path d="M142.68,304.22l-13.84-10.6-2.7-2.08-10.8,10.11-7.65,7.18,0,.05L96.09,319.7a11.64,11.64,0,0,0-.68,1.37L95.27,350,95,411.57a125.08,125.08,0,0,0,33.72,16.28q0-55.08,0-110.15c0-1.95,0-3.92,0-5.88l.13.12,3.26,2.48,22,16.69,0-18.13ZM124.55,382,99,404.21v-19.1l25.6-22.24Zm0-23.07L99,381.14V362.05l25.6-22.25Zm.65-24.71L98.62,357.41V338.32l26.58-23.23Z" fill="#22427c" stroke="#22427c" stroke-miterlimit="10"/><path d="M183.74,128.68l-1.88-1.62L163.3,111.17V483.78c3.37.22,6.76.33,10.2.33,2.82,0,5.59-.07,8.36-.22V269l1.88-1.91,15.52-15.71V142Zm10.8,112.71a1.54,1.54,0,0,1-2.53,1.18l-22.67-19a1.53,1.53,0,0,1-.56-1.18V209.24a1.54,1.54,0,0,1,2.53-1.18l22.68,19a1.56,1.56,0,0,1,.55,1.18Zm0-34.44a1.54,1.54,0,0,1-2.53,1.18l-22.67-19a1.55,1.55,0,0,1-.56-1.18V174.8a1.54,1.54,0,0,1,2.53-1.18l22.68,19a1.54,1.54,0,0,1,.55,1.18Zm0-37.39a1.54,1.54,0,0,1-2.53,1.18l-22.67-19a1.53,1.53,0,0,1-.56-1.18V137.41a1.54,1.54,0,0,1,2.53-1.17l22.68,19a1.56,1.56,0,0,1,.55,1.18Z" fill="#22427c" stroke="#22427c" stroke-miterlimit="10"/><path d="M320.32,333.43a110.13,110.13,0,0,0,4.3-29.77c0-.31,0-.6,0-.91a113.63,113.63,0,0,0-17-59.45A131.47,131.47,0,0,0,288,218.47a149.26,149.26,0,0,0-30.65-23.3l-1.76-1a157.16,157.16,0,0,0-39.29-16.23v15.44a111.84,111.84,0,0,1,19.11,9.48,119.65,119.65,0,0,1,34.05,31.73q2.89,4,5.46,8.19c.42.65.84,1.37,1.24,2.06.61,1,1.24,2.1,1.81,3.19,0,0,0,0,0,0,.18.31.36.62.53,1,.78,1.42,1.5,2.84,2.22,4.3q2.42,4.86,4.39,10c.44,1.13.88,2.27,1.29,3.41q1.72,4.86,3.05,9.91c.07.23.12.42.18.65a117.49,117.49,0,0,1,2.55,12.73c.28,1.95.53,3.91.73,5.89.22,2.13.38,4.26.49,6.41.05,1,.09,2,.09,3a15.09,15.09,0,0,1,0,1.51c0,.49,0,1,0,1.51a2.58,2.58,0,0,1,0,.48,4.64,4.64,0,0,1,0,.65v2.81c0,3.55-.14,7.07-.45,10.62-.11,1.18-.22,2.33-.36,3.5q-.56,5.29-1.64,10.56h-.2c-.84,4.07-1.86,8.07-3.08,12a128.12,128.12,0,0,1-26.14,46.65c-1.6,1.84-3.28,3.63-5,5.39l0,0c-.55.56-1.08,1.11-1.66,1.66h0c-.56.58-1.11,1.11-1.69,1.65v-1.43l-.07,0V389l.11.09.42-119.5-11.48-9.49-.33-.29a0,0,0,0,0,0,0l-.51-.4-23.11-19.05-.88-.73-1.11-.91V478.14c2.79-.79,5.54-1.65,8.27-2.64a153.26,153.26,0,0,0,24.67-10.33l.14-.06a.07.07,0,0,0,.06,0A157.11,157.11,0,0,0,311.12,407a.34.34,0,0,1,.09-.13,112.9,112.9,0,0,0,10.19-32c.07-.31.12-.62.16-.93a112.86,112.86,0,0,0,1.26-16.74v-.15c0-.41,0-.78,0-1.18a88.62,88.62,0,0,0-3-20.22c0-.07,0-.11,0-.17a3.11,3.11,0,0,0,.11-.41C320,334.52,320.16,334,320.32,333.43ZM245.73,297H236v-4.61h3.84ZM230,393.78h10.16v4.61H230Zm-5.09-.68v-4.6H235v4.6Zm11.12,0v-4.6h10.17v4.6Zm4.13-5.4H230v-4.6h10.16Zm-15.25-5.28v-4.61H235v4.61Zm11.12,0v-4.61h10.17v4.61Zm4.13-5.4H230v-4.61h10.16Zm-15.25-5.28v-4.61H235v4.61Zm11.12,0v-4.61h10.17v4.61Zm4.13-5.4H230v-4.61h10.16Zm-15.25-5.29v-4.6H235v4.6Zm11.12,0v-4.6h10.17v4.6Zm4.13-5.4H230v-4.6h10.16Zm-15.25-5.27v-4.61H235v4.61Zm11.12,0v-4.61h10.17v4.61Zm4.13-5.4H230v-4.61h10.16Zm-15.25-5.28v-4.61H235v4.61Zm11.12,0v-4.61h10.17v4.61Zm4.13-5.4H230v-4.61h10.16ZM224.87,329v-4.6H235V329ZM236,329v-4.6h10.17V329Zm4.13-5.4H230V319h10.16Zm-15.25-5.28v-4.6H235v4.6Zm11.12,0v-4.6h10.17v4.6Zm4.13-5.4H230v-4.6h10.16Zm-15.25-5.28V303H235v4.61Zm11.12,0V303h10.17v4.61Zm4.13-5.4H230v-4.61h10.16ZM224.87,297v-4.61H235V297Zm13.94-5.4H230V287h2.95Zm-6.76-5.29h-7.18v-4.6h1.28Zm-13.22-10h.39l5.91,4.6h-6.3Zm0,5.4h5.09v4.6h-5.09Zm0,5.28H229v4.61H218.83Zm0,5.4h5.09V297h-5.09Zm0,5.28H229v4.61H218.83Zm0,5.4h5.09v4.61h-5.09Zm0,5.29H229v4.6H218.83Zm0,5.4h5.09v4.6h-5.09Zm0,5.28H229v4.6H218.83Zm0,5.4h5.09V329h-5.09Zm0,5.28H229v4.61H218.83Zm0,5.4h5.09v4.61h-5.09Zm0,5.28H229V345H218.83Zm0,5.4h5.09v4.61h-5.09Zm0,5.28H229v4.6H218.83Zm0,5.4h5.09v4.6h-5.09Zm0,5.28H229v4.61H218.83Zm0,5.4h5.09v4.61h-5.09Zm0,5.28H229V377H218.83Zm0,5.4h5.09v4.61h-5.09Zm0,5.29H229v4.6H218.83Zm0,5.4h5.09v4.6h-5.09Zm5.09,15.29h-5.09v-4.61h5.09Zm-5.09-5.4v-4.61H229v4.61Zm16.2,5.4H224.87v-4.61H235Zm11.13,0H236v-4.61h10.17Zm5.07,0h-4.12v-4.61h4.12Zm0-5.4H241.07v-4.61h10.16Zm0-5.29h-4.12v-4.6h4.12Zm0-5.4H241.07v-4.6h10.16Zm0-5.28h-4.12v-4.61h4.12Zm0-5.4H241.07v-4.61h10.16Zm0-5.28h-4.12v-4.61h4.12Zm0-5.4H241.07v-4.61h10.16Zm0-5.29h-4.12v-4.6h4.12Zm0-5.4H241.07v-4.6h10.16Zm0-5.27h-4.12v-4.61h4.12Zm0-5.4H241.07v-4.61h10.16Zm0-5.28h-4.12v-4.61h4.12Zm0-5.4H241.07v-4.61h10.16Zm0-5.29h-4.12v-4.6h4.12Zm0-5.4H241.07V319h10.16Zm0-5.28h-4.12v-4.6h4.12Zm0-5.4H241.07v-4.6h10.16Zm0-5.28h-4.12V303h4.12Zm0-5.4H241.07v-4.61h5.53l4.63,3.63Zm69.14,76.57,0,.13a1.21,1.21,0,0,1,0,.14A2.76,2.76,0,0,0,320.37,378.82Z" fill="#e73f11" stroke="#e73f11" stroke-miterlimit="10"/></g></svg>